<svg xmlns="http://www.w3.org/2000/svg" viewBox="0 0 61.25 63.93"><defs><style>.cls-1{fill:#1d1d1b;}.cls-1,.cls-2{stroke:#1d1d1b;stroke-miterlimit:10;}.cls-2{fill:#e9b750;}</style></defs><g id="Calque_2" data-name="Calque 2"><g id="Calque_1-2" data-name="Calque 1"><circle class="cls-1" cx="30.46" cy="32.07" r="29.78"/><path class="cls-2" d="M31.81,11.59H47q7.28,0,10.91,3.67t2.62,10a12.69,12.69,0,0,1-3.81,7.52,12,12,0,0,1-7.49,3.28l-.07.43q4.89.28,7.16,3.53t1.41,8.78a16.51,16.51,0,0,1-5.87,10.77q-4.78,3.86-12.28,3.85h-16Zm-.87,45.94H39.8a11.74,11.74,0,0,0,7.59-2.34A10,10,0,0,0,51,48.6q.65-4.18-1.59-6.55c-1.48-1.59-3.74-2.38-6.76-2.38H33.75Zm3.75-23.48H43.4a10.73,10.73,0,0,0,6.87-2.19,9.12,9.12,0,0,0,3.35-6.09q.59-3.89-1.44-6.08c-1.34-1.46-3.38-2.2-6.12-2.2H37.28Z"/><path class="cls-2" d="M8.79.5H17l8.43,34.78a22.31,22.31,0,0,1,.57,3c.15,1.13.26,2.2.36,3.21.1,1.2.19,2.42.29,3.67h.58c0-1,.08-1.94.1-2.81s.09-1.86.18-3,.24-2.31.44-3.56L33.56.5h6.19l-8.2,51.84H23.34L15.2,17.49c-.24-1.1-.46-2.23-.65-3.38s-.33-2.21-.43-3.17-.19-2.21-.29-3.31h-.57c0,.77,0,1.63-.07,2.59S13,12,12.9,13.14s-.27,2.38-.51,3.78L6.78,52.34H.59Z"/></g></g></svg>