<svg xmlns="http://www.w3.org/2000/svg" viewBox="0 0 175.22 175.22"><defs><style>.cls-1{fill:#09476b;}</style></defs><g id="Calque_2" data-name="Calque 2"><g id="svg8552"><g id="layer1"><path id="path6394" class="cls-1" d="M125.36,96.89a29.11,29.11,0,0,1,3.06-.17q7.61,0,11.65,3.43t4.05,9.73A20.89,20.89,0,0,1,141,120.51q-3.16,5.38-10.63,12.61-5,4.88-13.32,11.62t-16.59,12.73v15.2h72.24V155.06H131.33q2.4-1.74,8.09-6.09t11.31-9.55q9-8.34,13.32-16.19a33.65,33.65,0,0,0,4.35-16.56q0-13.29-9.08-20.55t-26.39-7.26c-2.52,0-5.05.13-7.57.38V44.08H101.17V78.42H65.45V44.08H41.26v93.81H65.45V96.56h35.72v41.33h.27q3.41-2.64,6.81-5.4,8.31-6.74,13.32-11.62c1.37-1.33,2.64-2.61,3.79-3.84ZM87.7,170.11a82.5,82.5,0,1,1,82.41-82.58v2.55h5.11V87.53A87.61,87.61,0,1,0,87.7,175.22h2.55v-5.11Z"/></g></g></g></svg>